<?xml version="1.0" encoding="utf-8"?>
<!-- Generator: Adobe Illustrator 21.0.0, SVG Export Plug-In . SVG Version: 6.00 Build 0)  -->
<svg version="1.1" xmlns="http://www.w3.org/2000/svg" xmlns:xlink="http://www.w3.org/1999/xlink" x="0px" y="0px"
	 viewBox="0 0 1672.4 1105.5" style="enable-background:new 0 0 1672.4 1105.5;" xml:space="preserve">
<style type="text/css">
	.st0{display:none;fill:#34A015;stroke:#39B54A;stroke-width:30;stroke-miterlimit:10;}
	.st1{display:none;fill:#34A015;stroke:#39B54A;stroke-width:24;stroke-miterlimit:10;}
	.st2{display:none;stroke:#39B54A;stroke-width:32.1915;stroke-miterlimit:10;}
	.st3{display:none;fill:none;stroke:#39B54A;stroke-width:31;stroke-miterlimit:10;}
	.st4{display:none;stroke:#39B54A;stroke-width:31;stroke-miterlimit:10;}
	.st5{display:none;stroke:#39B54A;stroke-width:33;stroke-miterlimit:10;}
	.st6{display:none;stroke:#39B54A;stroke-width:26;stroke-miterlimit:10;}
	.st7{display:none;stroke:#39B54A;stroke-width:31.9534;stroke-miterlimit:10;}
	.st8{display:none;stroke:#39B54A;stroke-width:30.9039;stroke-miterlimit:10;}
	.st9{display:none;stroke:#39B54A;stroke-width:32;stroke-miterlimit:10;}
	.st10{fill:#008435;stroke:#008435;stroke-miterlimit:10;}
	.st11{fill:url(#SVGID_1_);}
	.st12{fill:none;stroke:#008435;stroke-width:33;stroke-miterlimit:10;}
	.st13{fill:url(#SVGID_2_);}
</style>
<g id="Capa_2">
</g>
<g id="Capa_1">
	<line class="st0" x1="187" y1="267" x2="187" y2="624"/>
	<line class="st0" x1="316.3" y1="128.4" x2="183.5" y2="277.5"/>
	<line class="st0" x1="295" y1="290" x2="295" y2="571"/>
	<line class="st0" x1="396.9" y1="180.5" x2="292.5" y2="297.7"/>
	<line class="st0" x1="938" y1="599" x2="938" y2="318"/>
	<line class="st0" x1="836.5" y1="708" x2="940.9" y2="590.8"/>
	<line class="st0" x1="1038.3" y1="616.4" x2="905.5" y2="765.5"/>
	<line class="st0" x1="1034.7" y1="627" x2="1036.6" y2="270"/>
	<line class="st1" x1="237" y1="582" x2="237" y2="299"/>
	<line class="st1" x1="1116.3" y1="281.6" x2="983.5" y2="138"/>
	<line class="st1" x1="1112.7" y1="271.4" x2="1114.5" y2="628"/>
	<line class="st1" x1="160.1" y1="592.4" x2="311.1" y2="741.5"/>
	<line class="st1" x1="164.2" y1="601" x2="162" y2="244"/>
	<line class="st2" x1="1217.8" y1="359.2" x2="1137.3" y2="460.6"/>
	<polyline class="st3" points="1038.5,664 1038.5,363.5 1149.3,450.8 	"/>
	<line class="st4" x1="978" y1="351.5" x2="823" y2="351.5"/>
	<line class="st5" x1="839.5" y1="385" x2="839.5" y2="664"/>
	<line class="st6" x1="978" y1="650" x2="868" y2="650"/>
	<line class="st4" x1="936" y1="492.5" x2="868" y2="492.5"/>
	<line class="st7" x1="559.9" y1="349.4" x2="756.1" y2="656.6"/>
	<line class="st8" x1="746.5" y1="345.7" x2="673.2" y2="463.8"/>
	<line class="st8" x1="630" y1="529.2" x2="565.6" y2="655.4"/>
	<line class="st4" x1="338.5" y1="330" x2="338.5" y2="600"/>
	<line class="st4" x1="485.5" y1="330" x2="485.5" y2="599"/>
	<line class="st9" x1="356" y1="646" x2="464" y2="646"/>
	<g>
		<g>
			<path class="st10" d="M523.5,414.2h27.2V546c0,26.4-8.4,45.4-25.2,56.9c-16.8,11.5-38.7,17.2-65.9,17.2
				c-30.2,0-52.6-5.9-67.1-17.8c-14.5-11.8-21.8-30.6-21.8-56.4V414.2h32.7V546c0,15.7,2.4,26.7,7.1,33.1
				c4.7,6.4,11.9,11.1,21.4,14.2c9.6,3.1,19.6,4.6,30,4.6c20.1,0,35.4-4.1,45.9-12.3c10.5-8.2,15.7-21.4,15.7-39.6V414.2z"/>
			<path class="st10" d="M795.1,414.2l-73.2,92.4L805.6,616h-37l-65.9-86l-68.6,86h-30.4l83.6-104.4L613,414.2h36.6l57.2,74.6
				l58.6-74.6H795.1z"/>
			<path class="st10" d="M1031.7,593.8V616H862.8V414.2H1028v22.2H895.5v64.2h105.2v20.5H895.5v72.7H1031.7z"/>
			<path class="st10" d="M1345.1,616h-31.7V439.8L1228.6,616h-22.2l-85.7-176.2V616H1093V414.2h48.4l78.9,161.4l77-161.4h47.8V616z"
				/>
		</g>
		<g>
			
				<linearGradient id="SVGID_1_" gradientUnits="userSpaceOnUse" x1="128.2494" y1="89.4597" x2="773.8043" y2="89.4597" gradientTransform="matrix(-1.0651 -1.543776e-02 1.835177e-02 -1.2683 1121.9032 893.5845)">
				<stop  offset="9.852220e-03" style="stop-color:#1E3E23"/>
				<stop  offset="9.359610e-02" style="stop-color:#1A4A28"/>
				<stop  offset="0.197" style="stop-color:#15582D"/>
				<stop  offset="0.2463" style="stop-color:#125F30"/>
				<stop  offset="0.2512" style="stop-color:#106432"/>
				<stop  offset="0.4089" style="stop-color:#0A7639"/>
				<stop  offset="0.4433" style="stop-color:#097A3A"/>
				<stop  offset="0.5271" style="stop-color:#05833E"/>
				<stop  offset="0.5369" style="stop-color:#048740"/>
				<stop  offset="0.5714" style="stop-color:#129443"/>
				<stop  offset="0.6207" style="stop-color:#20A146"/>
				<stop  offset="0.6749" style="stop-color:#1C9E45"/>
				<stop  offset="0.7389" style="stop-color:#139744"/>
				<stop  offset="0.8522" style="stop-color:#038B42"/>
				<stop  offset="0.9951" style="stop-color:#39B54A"/>
			</linearGradient>
			<polyline class="st11" points="985.9,852.1 418.7,838.7 300.4,694.3 976.9,832 			"/>
			<polyline class="st12" points="297.5,694.2 433.9,839.7 987.5,838 			"/>
			<line class="st12" x1="301" y1="708" x2="301" y2="334"/>
		</g>
		<g>
			
				<linearGradient id="SVGID_2_" gradientUnits="userSpaceOnUse" x1="-293.5112" y1="45.9415" x2="352.0731" y2="45.9415" gradientTransform="matrix(1.0631 1.574634e-02 -1.968644e-02 1.3251 960.2348 171.1316)">
				<stop  offset="9.852220e-03" style="stop-color:#1E3E23"/>
				<stop  offset="9.359610e-02" style="stop-color:#1A4A28"/>
				<stop  offset="0.197" style="stop-color:#15582D"/>
				<stop  offset="0.2463" style="stop-color:#125F30"/>
				<stop  offset="0.2512" style="stop-color:#106432"/>
				<stop  offset="0.4089" style="stop-color:#0A7639"/>
				<stop  offset="0.4433" style="stop-color:#097A3A"/>
				<stop  offset="0.5271" style="stop-color:#05833E"/>
				<stop  offset="0.5369" style="stop-color:#048740"/>
				<stop  offset="0.5714" style="stop-color:#129443"/>
				<stop  offset="0.6207" style="stop-color:#20A146"/>
				<stop  offset="0.6749" style="stop-color:#1C9E45"/>
				<stop  offset="0.7389" style="stop-color:#139744"/>
				<stop  offset="0.8522" style="stop-color:#038B42"/>
				<stop  offset="0.9951" style="stop-color:#39B54A"/>
			</linearGradient>
			<polyline class="st13" points="648.5,150.1 1214.6,164 1332.5,314.8 657.4,171.1 			"/>
			<polyline class="st12" points="1335.3,310 1199.7,163.8 646.1,162.5 			"/>
			<line class="st12" x1="1331.9" y1="300.2" x2="1329.8" y2="674.2"/>
		</g>
	</g>
</g>
</svg>
